<?xml version="1.0" encoding="UTF-8"?>
<svg id="_Слой_2" style="fill: currentColor" data-name="Слой 2" xmlns="http://www.w3.org/2000/svg" viewBox="0 0 266 119.09">
  <defs>
    <style>






      .cls-3 {
        fill: transparent;
      }
    </style>
  </defs>
  <g id="_Слой_1-2" data-name="Слой 1">
    <g>
      <path class="cls-3" d="M.04,119.06V11.96C.04,8.4.1,4.84,0,1.28-.03.13.37-.11,1.34.04c.11.02.23,0,.34,0C89.23.04,176.78.05,264.32,0c1.33,0,1.68.2,1.68,1.62-.05,38.65-.05,77.29,0,115.94,0,1.35-.39,1.52-1.6,1.52-88.11-.03-176.22-.03-264.36-.03ZM6.11,40.03c0,11.08,0,22.15,0,33.23,0,1.18.05,2.11,1.65,2.11,12.61-.03,25.21-.02,37.82,0,1.29,0,1.66-.59,1.63-1.77-.05-2.09-.01-4.18-.02-6.27,0-2.07-.13-2.2-2.23-2.21-8.37,0-16.73,0-25.1,0-2.06,0-2.18-.13-2.18-2.22,0-5.2,0-10.4,0-15.6,0-2.2.06-2.26,2.3-2.26,5.99,0,11.98-.03,17.98.01,1.42,0,2.08-.47,2.02-1.97-.08-1.97-.02-3.95-.03-5.93,0-2.33-.08-2.4-2.35-2.4-5.88,0-11.76,0-17.64,0-2.13,0-2.28-.16-2.28-2.33,0-4.97,0-9.95,0-14.92,0-2.37.07-2.44,2.51-2.44,8.31,0,16.62,0,24.93,0,2.21,0,2.53-.55,1.48-2.53-1.11-2.09-2.31-4.14-3.33-6.28-.55-1.16-1.29-1.47-2.52-1.47-10.8.04-21.59.02-32.39.02-2.16,0-2.25.1-2.25,2.35,0,10.96,0,21.93,0,32.89ZM165.87,40.01c0,11.13,0,22.26,0,33.39,0,1.13.06,1.98,1.57,1.98,12.6-.03,25.2-.03,37.81,0,1.26,0,1.72-.55,1.71-1.73-.02-2.09,0-4.18,0-6.27,0-2.04-.21-2.25-2.2-2.25-8.42,0-16.84-.03-25.26.03-1.63.01-2.2-.57-2.18-2.17.06-5.25.02-10.51.03-15.76,0-1.99.21-2.17,2.28-2.18,5.99,0,11.98-.04,17.97.02,1.63.02,2.24-.58,2.16-2.19-.1-1.86-.02-3.73-.02-5.59,0-2.36-.15-2.53-2.45-2.53-5.88,0-11.75,0-17.63,0-2.1,0-2.31-.22-2.31-2.35,0-4.91,0-9.83,0-14.74,0-2.46.13-2.59,2.59-2.59,8.36,0,16.73,0,25.09,0,1.98,0,2.34-.62,1.41-2.37-1.14-2.14-2.37-4.24-3.42-6.42-.55-1.15-1.29-1.5-2.51-1.49-10.74.04-21.47.02-32.21.02-2.39,0-2.4,0-2.4,2.34,0,10.96,0,21.92,0,32.88ZM133.71,4.79c-5.48,0-10.96.02-16.44-.02-1.32,0-1.96.4-1.95,1.84.03,22.31.02,44.63,0,66.94,0,1.28.42,1.85,1.77,1.82,2.54-.07,5.09-.07,7.63,0,1.49.04,1.95-.57,1.96-2.02.04-8.58.15-17.16.22-25.75.02-2.48.12-2.59,2.57-2.59,5.88,0,11.75-.03,17.63.02,1.51.01,2.17-.49,2.1-2.06-.09-2.03-.11-4.07,0-6.1.09-1.62-.47-2.19-2.13-2.16-5.82.08-11.64.02-17.46.02-2.64,0-2.71-.06-2.71-2.76,0-4.91,0-9.83,0-14.74,0-2.09.09-2.18,2.24-2.18,8.31,0,16.61,0,24.92,0,2.35,0,2.7-.55,1.63-2.57-1.11-2.09-2.28-4.15-3.33-6.27-.52-1.05-1.19-1.46-2.37-1.44-5.42.06-10.85.03-16.27.02ZM74.29,60.54c0,4.18,0,8.36,0,12.54,0,1.86.42,2.26,2.31,2.27,1.98,0,3.96,0,5.93,0q3.35,0,3.35-3.27c0-7.68.02-15.36-.02-23.05,0-1.33.27-2.52.86-3.72,6.17-12.41,12.31-24.84,18.45-37.27,1.13-2.29.54-3.26-2.01-3.26-2.49,0-4.97.06-7.46-.02-1.44-.05-2.24.43-2.84,1.8-3.77,8.62-7.62,17.2-11.49,25.77-.32.7-.35,1.93-1.37,1.88-.85-.04-.92-1.18-1.23-1.86-3.86-8.58-7.7-17.16-11.48-25.77-.59-1.34-1.37-1.87-2.82-1.82-2.54.1-5.08.02-7.63.03-2.33,0-2.96,1-1.93,3.09,5.27,10.66,10.45,21.36,15.86,31.95,2.26,4.43,4.2,8.78,3.55,13.94-.28,2.22-.05,4.51-.05,6.77ZM216.44,40.06c0,11.01,0,22.02,0,33.04,0,2.2.06,2.26,2.32,2.26,7.91,0,15.82,0,23.73,0,4.58,0,9.15.02,13.73,0,1.82,0,2.2-.68,1.36-2.27-1.08-2.04-2.31-4.01-3.23-6.12-.74-1.7-1.85-2.09-3.58-2.07-6.55.09-13.1.04-19.66.03-3.01,0-3.03-.03-3.03-3.01,0-18.3,0-36.59,0-54.89,0-2.16-.07-2.23-2.15-2.23-2.43,0-4.86,0-7.29,0-2.09,0-2.19.1-2.19,2.23,0,11.01,0,22.02,0,33.04ZM131.95,87.49c-41.03,0-82.06,0-123.08,0-.57,0-1.13.04-1.69,0-.8-.06-1.01.26-1.09,1.06-.15,1.61.89,1.35,1.84,1.35,82.73,0,165.47,0,248.2,0,.23,0,.46-.03.68,0,.99.14,1.22-.34,1.27-1.26.08-1.62-1.06-1.14-1.85-1.14-41.42-.01-82.85-.01-124.27-.01ZM131.98,93.63c41.27,0,82.53,0,123.8-.03.73,0,2.16.69,2.14-.7-.02-1.22-1.38-.59-2.09-.59-82.53-.03-165.07-.03-247.6-.03-.4,0-.79,0-1.19,0-.51,0-.93.14-.9.74.02.51.43.6.85.61.34,0,.68,0,1.02,0,41.32,0,82.65,0,123.97,0ZM255.86,109.12c.12.05.25.1.37.15,0,1.35,0,2.7,0,4.04,0,.65.13,1.05.94,1.05.83,0,.89-.46.88-1.08-.01-2.09,0-4.17-.01-6.26,0-.52.23-1.21-.57-1.38-.65-.14-1.19.03-1.59.65-.77,1.18-1.62,2.3-2.39,3.48-.48.73-.85.92-1.44.06-.85-1.26-1.81-2.44-2.7-3.67-.39-.55-.94-.65-1.5-.5-.55.15-.44.71-.44,1.15,0,2.14,0,4.28,0,6.42,0,.57-.07,1.12.82,1.14.91.02.8-.54.8-1.1,0-1.38,0-2.76,0-4.14,1.19.98,2.05,2.05,2.81,3.19.71,1.05,1.24.9,1.86-.07.68-1.07,1.44-2.09,2.16-3.12ZM190.57,111.35c2.24-.64,2.29-.82,2.24-3.6-.03-1.39-.57-2.13-1.98-2.14-1.97-.01-3.95,0-5.92,0-.65,0-1.06.14-1.05.93.04,2.31.04,4.62,0,6.93-.02.83.4.89,1.04.89,1.26-.01.77-.96.9-1.59.11-.55-.35-1.37.53-1.56.69-.15,1.44-.16,2.04.47.66.69,1.42,1.28,2.06,1.99.91,1,1.89.77,3.2.41-1.11-.98-2.02-1.79-3.07-2.73ZM84.83,110.07c0,1.07.04,2.15-.01,3.22-.04.8.23,1.1,1.05,1.07,1.69-.05,3.39.04,5.08-.04,2.15-.1,3.55-1.5,3.78-3.61.33-2.97-1.08-4.72-4.07-5.05q-5.83-.65-5.83,4.41ZM6.11,109.85c0,1.13.03,2.26-.01,3.38-.03.74.12,1.14,1,1.12,2.2-.05,4.4-.02,6.59,0,.59,0,.96-.11.97-.82,0-.75-.47-.8-1-.8-1.47-.01-2.93-.04-4.4,0-.82.02-1.22-.15-1.22-1.1,0-1.02.54-1.07,1.29-1.03.62.03,1.24-.02,1.86.01.56.03.82-.17.81-.76,0-.56-.2-.86-.77-.86-.68,0-1.35,0-2.03,0-.56,0-1.14.1-1.15-.79-.01-.87.43-1.01,1.16-.99,1.46.04,2.93,0,4.4.01.55,0,1-.05,1.02-.78.03-.75-.46-.82-.98-.83-1.07-.02-2.14,0-3.21,0q-4.33,0-4.33,4.24ZM107.19,109.93c0,1.13.04,2.26-.01,3.38-.04.79.21,1.08,1.04,1.06,2.14-.05,4.28-.01,6.42-.02.48,0,1.04.15,1.08-.67.03-.77-.34-.96-1.02-.95-1.46.03-2.93-.01-4.4.02-.78.01-1.3-.15-1.29-1.1.01-.99.61-1.06,1.35-1.03.62.02,1.24-.02,1.86,0,.55.02.84-.13.81-.75-.02-.52-.13-.89-.74-.88-.51,0-1.02.05-1.52,0-.69-.08-1.77.43-1.74-.91.03-1.17.98-.83,1.66-.85,1.18-.03,2.37.02,3.55-.02.54-.02,1.33.32,1.34-.75,0-.98-.68-.86-1.29-.86-1.86,0-3.73.09-5.58-.03-1.34-.09-1.67.43-1.54,1.64.09.89.02,1.8.02,2.7ZM143.14,109.98c0,1.07.02,2.14,0,3.21-.01.68,0,1.19.94,1.18.88,0,1.14-.42,1.01-1.14-.35-1.95.69-2.28,2.28-2.09.5.06,1.01,0,1.52,0,3.05,0,3.16-.12,3.14-3.11-.02-2.08-.33-2.4-2.47-2.43-.68-.01-1.35,0-2.03,0q-4.38,0-4.38,4.37ZM47.15,109.72c0,.96,0,1.92,0,2.88,0,1.07.52,1.73,1.63,1.74,1.98.03,3.95.02,5.93,0,1.01,0,1.61-.56,1.63-1.56.05-2.09.02-4.18.04-6.27,0-.65-.26-.9-.91-.9-.61,0-.96.18-.94.87.03.73,0,1.47,0,2.2,0,4.35,0,4.33-4.4,4.07-.87-.05-1.2-.32-1.18-1.19.04-1.64-.01-3.28.02-4.91.01-.7-.18-1.03-.94-1.04-.81-.01-.92.42-.91,1.07.03,1.02,0,2.03,0,3.05ZM234.17,109.76c0-1.07-.02-2.14,0-3.21.02-.62-.17-.96-.85-.95-.69,0-1.05.25-1,1,.05.73,0,1.46,0,2.2,0,4.23,0,4.2-4.28,3.97-.91-.05-1.15-.37-1.13-1.22.05-1.63-.02-3.27.03-4.9.02-.74-.28-1.02-.97-1.04-.76-.02-1.14.24-1.1,1.08.05,1.01.01,2.03.01,3.04q0,4.63,4.6,4.63c5.19,0,4.65.39,4.66-4.59ZM35.1,114.34c.78.07,1.29-.07.77-1-1.31-2.35-2.6-4.72-3.95-7.05-.58-.99-1.89-1.04-2.45-.08-1.38,2.38-2.68,4.8-4,7.22-.33.61-.15.92.6.93.62,0,1.11-.11,1.3-.78.32-1.15,1.12-1.4,2.2-1.29.67.07,1.36.07,2.02,0,1.14-.13,1.98.17,2.34,1.36.18.6.61.76,1.17.69ZM172.4,114.13c-1.51-2.71-2.93-5.37-4.45-7.97-.51-.87-1.87-.84-2.37.04-1.37,2.38-2.67,4.81-3.98,7.23-.33.61-.15.88.59.94.78.06,1.17-.31,1.37-.94.33-.98,1.01-1.21,1.96-1.14.9.07,1.8.06,2.7,0,.77-.05,1.34.17,1.59.92.42,1.3,1.31,1.3,2.6.91ZM205.49,109.76c0,1.33.02,2.4,0,3.47-.01.68,0,1.16.94,1.16.99,0,.98-.56.88-1.18-.29-1.78.4-2.51,2.19-2.19.27.05.56,0,.84,0,.48,0,.71-.18.72-.7,0-.54-.14-.86-.74-.85-.62.02-1.24-.02-1.86,0-.87.04-1.18-.34-1.16-1.21.02-.82.37-1.07,1.14-1.06,1.46.03,2.93,0,4.39.02.55,0,.97-.03.95-.78-.02-.7-.37-.86-.96-.85-.96.01-1.91,0-2.87.01-1.4.02-3.23-.47-4.1.23-1.03.82-.18,2.74-.36,3.91Z"/>
      <path class="cls-1" d="M6.11,40.03c0-10.96,0-21.93,0-32.89,0-2.25.09-2.35,2.25-2.35,10.8,0,21.59.02,32.39-.02,1.22,0,1.96.31,2.52,1.47,1.01,2.14,2.22,4.18,3.33,6.28,1.05,1.98.73,2.53-1.48,2.53-8.31,0-16.62,0-24.93,0-2.44,0-2.51.07-2.51,2.44,0,4.97,0,9.95,0,14.92,0,2.16.15,2.33,2.28,2.33,5.88,0,11.76,0,17.64,0,2.27,0,2.34.07,2.35,2.4,0,1.98-.06,3.96.03,5.93.06,1.51-.6,1.98-2.02,1.97-5.99-.04-11.98-.02-17.98-.01-2.25,0-2.3.06-2.3,2.26,0,5.2,0,10.4,0,15.6,0,2.09.12,2.22,2.18,2.22,8.37,0,16.73,0,25.1,0,2.1,0,2.22.13,2.23,2.21,0,2.09-.04,4.18.02,6.27.03,1.19-.34,1.78-1.63,1.77-12.61-.02-25.21-.03-37.82,0-1.6,0-1.65-.92-1.65-2.11.02-11.08,0-22.15,0-33.23Z"/>
      <path class="cls-2" d="M165.87,40.01c0-10.96,0-21.92,0-32.88,0-2.33,0-2.34,2.4-2.34,10.74,0,21.47.02,32.21-.02,1.23,0,1.96.35,2.51,1.49,1.05,2.18,2.28,4.28,3.42,6.42.93,1.75.57,2.37-1.41,2.37-8.36.01-16.73,0-25.09,0-2.46,0-2.58.13-2.59,2.59,0,4.91,0,9.83,0,14.74,0,2.13.21,2.35,2.31,2.35,5.88,0,11.75,0,17.63,0,2.3,0,2.45.17,2.45,2.53,0,1.86-.08,3.73.02,5.59.08,1.62-.53,2.21-2.16,2.19-5.99-.06-11.98-.02-17.97-.02-2.07,0-2.28.18-2.28,2.18-.01,5.25.03,10.51-.03,15.76-.02,1.6.55,2.18,2.18,2.17,8.42-.06,16.84-.03,25.26-.03,1.99,0,2.2.22,2.2,2.25,0,2.09-.01,4.18,0,6.27.01,1.18-.45,1.73-1.71,1.73-12.6-.02-25.2-.02-37.81,0-1.51,0-1.57-.85-1.57-1.98.02-11.13,0-22.26,0-33.39Z"/>
      <path class="cls-2" d="M133.71,4.79c5.42,0,10.85.03,16.27-.03,1.19-.01,1.86.4,2.37,1.44,1.05,2.12,2.22,4.18,3.33,6.27,1.07,2.03.72,2.57-1.63,2.57-8.31,0-16.61,0-24.92,0-2.14,0-2.23.09-2.24,2.18,0,4.91,0,9.83,0,14.74,0,2.7.07,2.76,2.71,2.76,5.82,0,11.64.06,17.46-.02,1.66-.02,2.21.54,2.13,2.16-.11,2.03-.09,4.07,0,6.1.07,1.58-.59,2.08-2.1,2.06-5.88-.05-11.75-.02-17.63-.02-2.45,0-2.55.11-2.57,2.59-.07,8.58-.19,17.16-.22,25.75,0,1.44-.47,2.06-1.96,2.02-2.54-.07-5.09-.07-7.63,0-1.35.04-1.77-.54-1.77-1.82.02-22.31.02-44.63,0-66.94,0-1.44.63-1.85,1.95-1.84,5.48.04,10.96.02,16.44.02Z"/>
      <path class="cls-1" d="M74.29,60.54c0-2.26-.23-4.55.05-6.77.65-5.16-1.29-9.51-3.55-13.94-5.41-10.59-10.6-21.29-15.86-31.95-1.03-2.09-.4-3.08,1.93-3.09,2.54,0,5.09.07,7.63-.03,1.46-.06,2.24.48,2.82,1.82,3.78,8.61,7.62,17.2,11.48,25.77.31.68.38,1.82,1.23,1.86,1.02.05,1.06-1.18,1.37-1.88,3.87-8.57,7.72-17.15,11.49-25.77.6-1.37,1.4-1.85,2.84-1.8,2.48.09,4.97.02,7.46.02,2.55,0,3.14.97,2.01,3.26-6.14,12.43-12.28,24.86-18.45,37.27-.6,1.2-.87,2.38-.86,3.72.04,7.68.02,15.36.02,23.05q0,3.27-3.35,3.27c-1.98,0-3.96,0-5.93,0-1.89,0-2.31-.41-2.31-2.27-.01-4.18,0-8.36,0-12.54Z"/>
      <path class="cls-1" d="M216.44,40.06c0-11.01,0-22.02,0-33.04,0-2.13.09-2.23,2.19-2.23,2.43,0,4.86,0,7.29,0,2.08,0,2.15.07,2.15,2.23,0,18.3,0,36.59,0,54.89,0,2.98.02,3.01,3.03,3.01,6.55,0,13.11.05,19.66-.03,1.73-.02,2.84.37,3.58,2.07.92,2.11,2.15,4.08,3.23,6.12.85,1.59.46,2.26-1.36,2.27-4.58.02-9.15,0-13.73,0-7.91,0-15.82,0-23.73,0-2.26,0-2.32-.06-2.32-2.26,0-11.01,0-22.02,0-33.04Z"/>
      <path class="cls-1" d="M131.95,87.49c41.42,0,82.85,0,124.27.01.78,0,1.93-.48,1.85,1.14-.05.91-.28,1.4-1.27,1.26-.22-.03-.45,0-.68,0-82.73,0-165.47,0-248.2,0-.94,0-1.99.25-1.84-1.35.07-.8.29-1.12,1.09-1.06.56.04,1.13,0,1.69,0,41.03,0,82.06,0,123.08,0Z"/>
      <path class="cls-1" d="M131.98,93.63c-41.32,0-82.65,0-123.97,0-.34,0-.68,0-1.02,0-.42,0-.83-.1-.85-.61-.03-.6.39-.74.9-.74.4,0,.79,0,1.19,0,82.53,0,165.07,0,247.6.03.71,0,2.08-.63,2.09.59.02,1.39-1.41.7-2.14.7-41.27.04-82.53.03-123.8.04Z"/>
      <path class="cls-2" d="M255.86,109.12c-.72,1.04-1.48,2.06-2.16,3.12-.62.97-1.15,1.11-1.86.07-.77-1.13-1.62-2.21-2.81-3.19,0,1.38,0,2.76,0,4.14,0,.56.11,1.12-.8,1.1-.88-.02-.81-.57-.82-1.14,0-2.14,0-4.28,0-6.42,0-.44-.11-1,.44-1.15.55-.15,1.1-.05,1.5.5.89,1.23,1.85,2.42,2.7,3.67.58.86.95.67,1.44-.06.77-1.17,1.62-2.3,2.39-3.48.4-.62.95-.79,1.59-.65.8.17.56.86.57,1.38.02,2.09,0,4.17.01,6.26,0,.62-.05,1.08-.88,1.08-.8,0-.94-.4-.94-1.05.01-1.35,0-2.7,0-4.04-.12-.05-.25-.1-.37-.15Z"/>
      <path class="cls-2" d="M190.57,111.35c1.05.93,1.96,1.74,3.07,2.73-1.31.36-2.3.59-3.2-.41-.64-.71-1.41-1.3-2.06-1.99-.6-.63-1.35-.62-2.04-.47-.88.19-.41,1.01-.53,1.56-.13.63.36,1.58-.9,1.59-.64,0-1.06-.06-1.04-.89.04-2.31.04-4.62,0-6.93-.01-.8.4-.94,1.05-.93,1.97.01,3.95,0,5.92,0,1.41,0,1.96.74,1.98,2.14.05,2.78,0,2.96-2.24,3.6ZM188.19,109.56c.51,0,1.02-.05,1.52,0,1.04.11,1.24-.44,1.21-1.32-.03-.8-.41-1.21-1.16-1.01-1.3.34-3.23-.98-3.85.75-.75,2.1,1.22,1.44,2.28,1.57Z"/>
      <path class="cls-2" d="M84.83,110.07q0-5.06,5.83-4.41c2.99.33,4.4,2.08,4.07,5.05-.23,2.11-1.63,3.51-3.78,3.61-1.69.08-3.39-.01-5.08.04-.82.03-1.09-.27-1.05-1.07.06-1.07.01-2.15.01-3.22ZM88.91,107.23q-2.16-.01-2.16,2.19c0,3.72.07,3.75,3.9,3.2,1.41-.2,2.08-.99,2.22-2.33.22-2.17-.94-3.05-3.96-3.06Z"/>
      <path class="cls-2" d="M6.11,109.85q0-4.24,4.33-4.24c1.07,0,2.14-.02,3.21,0,.52.01,1.01.08.98.83-.03.73-.47.78-1.02.78-1.47,0-2.93.03-4.4-.01-.73-.02-1.17.12-1.16.99.01.89.59.79,1.15.79.68,0,1.35,0,2.03,0,.57,0,.77.31.77.86,0,.59-.25.79-.81.76-.62-.03-1.24.02-1.86-.01-.75-.04-1.29.01-1.29,1.03,0,.95.41,1.12,1.22,1.1,1.46-.04,2.93-.01,4.4,0,.53,0,1.01.05,1,.8,0,.7-.38.82-.97.82-2.2-.02-4.4-.05-6.59,0-.89.02-1.03-.38-1-1.12.04-1.13.01-2.25,0-3.38Z"/>
      <path class="cls-2" d="M107.19,109.93c0-.9.07-1.81-.02-2.7-.13-1.21.2-1.73,1.54-1.64,1.85.12,3.72.03,5.58.03.61,0,1.3-.13,1.29.86,0,1.07-.8.73-1.34.75-1.18.04-2.37,0-3.55.02-.67.02-1.63-.32-1.66.85-.03,1.34,1.05.83,1.74.91.5.06,1.01.02,1.52,0,.61,0,.72.36.74.88.03.62-.27.77-.81.75-.62-.03-1.24.02-1.86,0-.75-.03-1.34.04-1.35,1.03-.01.95.51,1.11,1.29,1.1,1.46-.03,2.93,0,4.4-.02.68-.01,1.05.18,1.02.95-.03.82-.6.66-1.08.67-2.14,0-4.28-.03-6.42.02-.83.02-1.07-.27-1.04-1.06.06-1.12.01-2.25.01-3.38Z"/>
      <path class="cls-2" d="M143.14,109.98q0-4.37,4.38-4.37c.68,0,1.35,0,2.03,0,2.14.03,2.45.35,2.47,2.43.02,2.99-.09,3.1-3.14,3.11-.51,0-1.02.05-1.52,0-1.59-.19-2.63.14-2.28,2.09.13.72-.13,1.14-1.01,1.14-.94,0-.96-.5-.94-1.18.02-1.07,0-2.14,0-3.21ZM147.45,109.56c.62,0,1.24-.01,1.86,0,.69.02.88-.42.88-.97,0-.48.13-1.24-.46-1.29-1.39-.13-2.81-.06-4.22-.03-.31,0-.35.36-.41.65-.28,1.42.02,1.64,2.34,1.64Z"/>
      <path class="cls-2" d="M47.15,109.72c0-1.02.02-2.03,0-3.05-.02-.65.1-1.08.91-1.07.76.01.96.35.94,1.04-.03,1.64.02,3.28-.02,4.91-.02.87.3,1.14,1.18,1.19,4.41.26,4.4.29,4.4-4.07,0-.73.03-1.47,0-2.2-.03-.69.32-.86.94-.87.64,0,.92.25.91.9-.03,2.09,0,4.18-.04,6.27-.02,1-.63,1.55-1.63,1.56-1.98.02-3.96.02-5.93,0-1.11-.02-1.62-.67-1.63-1.74,0-.96,0-1.92,0-2.88Z"/>
      <path class="cls-2" d="M234.17,109.76c-.01,4.99.53,4.6-4.66,4.59q-4.6,0-4.6-4.63c0-1.01.04-2.03-.01-3.04-.04-.83.34-1.1,1.1-1.08.69.02.99.3.97,1.04-.05,1.63.02,3.27-.03,4.9-.03.85.22,1.17,1.13,1.22,4.28.23,4.28.26,4.28-3.97,0-.73.04-1.47,0-2.2-.05-.75.31-.99,1-1,.68,0,.86.33.85.95-.03,1.07,0,2.14,0,3.21Z"/>
      <path class="cls-2" d="M35.1,114.34c-.56.07-1-.09-1.17-.69-.35-1.18-1.2-1.48-2.34-1.36-.67.07-1.36.07-2.02,0-1.08-.11-1.88.14-2.2,1.29-.18.67-.68.78-1.3.78-.74,0-.93-.32-.6-.93,1.32-2.42,2.61-4.84,4-7.22.56-.96,1.87-.91,2.45.08,1.36,2.33,2.64,4.7,3.95,7.05.51.92,0,1.07-.77,1ZM30.74,110.85c.51-.13,1.47.2,1.28-.59-.2-.84-.54-2.25-1.42-2.22-.83.03-1.28,1.42-1.33,2.29-.05.88.98.32,1.47.52Z"/>
      <path class="cls-2" d="M172.4,114.13c-1.28.39-2.18.39-2.6-.91-.24-.75-.81-.97-1.59-.92-.9.06-1.81.06-2.7,0-.95-.07-1.63.16-1.96,1.14-.21.62-.59.99-1.37.94-.75-.06-.92-.33-.59-.94,1.31-2.42,2.61-4.85,3.98-7.23.51-.88,1.87-.91,2.37-.04,1.52,2.61,2.95,5.26,4.45,7.97ZM166.81,110.91c.36-.39,1.46.37,1.32-.63-.12-.85-.57-2.23-1.36-2.24-.79-.02-1.24,1.36-1.4,2.19-.18.96.87.42,1.44.68Z"/>
      <path class="cls-2" d="M205.49,109.76c.18-1.17-.66-3.09.36-3.91.87-.7,2.69-.21,4.1-.23.96-.02,1.91,0,2.87-.01.59,0,.94.15.96.85.02.76-.4.79-.95.78-1.46-.01-2.93.02-4.39-.02-.77-.02-1.12.24-1.14,1.06-.02.87.29,1.25,1.16,1.21.62-.03,1.24,0,1.86,0,.61-.02.75.3.74.85,0,.51-.24.7-.72.7-.28,0-.57.05-.84,0-1.79-.32-2.48.41-2.19,2.19.1.62.11,1.18-.88,1.18-.95,0-.96-.48-.94-1.16.02-1.07,0-2.14,0-3.47Z"/>
      <path class="cls-3" d="M188.19,109.57c-1.06-.14-3.03.53-2.28-1.58.62-1.73,2.55-.41,3.85-.75.75-.2,1.13.21,1.16,1.01.03.88-.17,1.43-1.21,1.32-.5-.06-1.02,0-1.52,0Z"/>
      <path class="cls-3" d="M88.91,107.23c3.02.01,4.18.9,3.96,3.06-.13,1.33-.81,2.12-2.22,2.33-3.83.55-3.9.51-3.9-3.2q0-2.2,2.16-2.19Z"/>
      <path class="cls-3" d="M147.45,109.57c-2.32,0-2.62-.22-2.34-1.64.06-.29.1-.64.41-.65,1.41-.04,2.82-.1,4.22.03.58.05.46.81.46,1.29,0,.55-.2.99-.88.97-.62-.02-1.24,0-1.86,0Z"/>
      <path class="cls-3" d="M30.74,110.85c-.49-.2-1.52.36-1.47-.52.05-.86.5-2.26,1.33-2.29.88-.03,1.22,1.38,1.42,2.22.19.78-.78.45-1.28.59Z"/>
      <path class="cls-3" d="M166.81,110.91c-.56-.27-1.62.27-1.44-.68.16-.83.6-2.21,1.4-2.19.79.02,1.25,1.4,1.36,2.24.14,1-.96.25-1.32.63Z"/>
    </g>
  </g>
</svg>